<svg xmlns="http://www.w3.org/2000/svg" viewBox="0 0 64 64" role="img" aria-label="Brutalist favicon">
  <rect width="64" height="64" fill="#000000" />
  <rect x="2" y="2" width="60" height="60" fill="none" stroke="#ff3e00" stroke-width="4" />

  <g fill="#ffffff">
    <rect x="10" y="8" width="5" height="14" rx="2.5" />
    <rect x="7" y="20" width="11" height="17" rx="1" />
    <path d="M7 40h11v2c0 3-2 5-5 5h-1c-3 0-5-2-5-5v-2Z" />
    <rect x="10" y="46" width="5" height="10" rx="2.5" />

    <rect x="30" y="8" width="5" height="14" rx="2.5" />
    <rect x="27" y="20" width="11" height="17" rx="1" />
    <path d="M27 40h11v2c0 3-2 5-5 5h-1c-3 0-5-2-5-5v-2Z" />
    <rect x="30" y="46" width="5" height="10" rx="2.5" />

    <rect x="50" y="8" width="5" height="14" rx="2.5" />
    <rect x="47" y="20" width="11" height="17" rx="1" />
    <path d="M47 40h11v2c0 3-2 5-5 5h-1c-3 0-5-2-5-5v-2Z" />
    <rect x="50" y="46" width="5" height="10" rx="2.5" />
  </g>
</svg>
